<mxfile host="app.diagrams.net" modified="2023-08-10T22:46:17.606Z" agent="Mozilla/5.0 (Windows NT 10.0; Win64; x64) AppleWebKit/537.36 (KHTML, like Gecko) Chrome/115.0.0.0 Safari/537.36 Edg/115.0.1901.200" etag="tZM8u06xRWveGcHcwWfP" version="21.6.8" type="device">
  <diagram name="Página-1" id="NapF1jERXZLQ90Ajp4u9">
    <mxGraphModel dx="951" dy="549" grid="1" gridSize="10" guides="1" tooltips="1" connect="1" arrows="1" fold="1" page="1" pageScale="1" pageWidth="827" pageHeight="1169" math="0" shadow="0">
      <root>
        <mxCell id="0" />
        <mxCell id="1" parent="0" />
        <mxCell id="2DAiJqgA59Ea-LpY0h7K-4" value="" style="edgeStyle=orthogonalEdgeStyle;rounded=0;orthogonalLoop=1;jettySize=auto;html=1;" edge="1" parent="1" source="2DAiJqgA59Ea-LpY0h7K-2" target="2DAiJqgA59Ea-LpY0h7K-3">
          <mxGeometry relative="1" as="geometry" />
        </mxCell>
        <mxCell id="2DAiJqgA59Ea-LpY0h7K-2" value="Início" style="rounded=1;whiteSpace=wrap;html=1;" vertex="1" parent="1">
          <mxGeometry x="330" y="30" width="120" height="60" as="geometry" />
        </mxCell>
        <mxCell id="2DAiJqgA59Ea-LpY0h7K-6" value="" style="edgeStyle=orthogonalEdgeStyle;rounded=0;orthogonalLoop=1;jettySize=auto;html=1;" edge="1" parent="1" source="2DAiJqgA59Ea-LpY0h7K-3" target="2DAiJqgA59Ea-LpY0h7K-5">
          <mxGeometry relative="1" as="geometry" />
        </mxCell>
        <mxCell id="2DAiJqgA59Ea-LpY0h7K-3" value="Calçar o tênis&amp;nbsp;" style="whiteSpace=wrap;html=1;rounded=1;" vertex="1" parent="1">
          <mxGeometry x="330" y="140" width="120" height="60" as="geometry" />
        </mxCell>
        <mxCell id="2DAiJqgA59Ea-LpY0h7K-11" value="" style="edgeStyle=orthogonalEdgeStyle;rounded=0;orthogonalLoop=1;jettySize=auto;html=1;" edge="1" parent="1" source="2DAiJqgA59Ea-LpY0h7K-5" target="2DAiJqgA59Ea-LpY0h7K-10">
          <mxGeometry relative="1" as="geometry" />
        </mxCell>
        <mxCell id="2DAiJqgA59Ea-LpY0h7K-16" value="" style="edgeStyle=orthogonalEdgeStyle;rounded=0;orthogonalLoop=1;jettySize=auto;html=1;" edge="1" parent="1" source="2DAiJqgA59Ea-LpY0h7K-5" target="2DAiJqgA59Ea-LpY0h7K-15">
          <mxGeometry relative="1" as="geometry" />
        </mxCell>
        <mxCell id="2DAiJqgA59Ea-LpY0h7K-5" value="procurar uma meia" style="whiteSpace=wrap;html=1;rounded=1;" vertex="1" parent="1">
          <mxGeometry x="170" y="230" width="120" height="60" as="geometry" />
        </mxCell>
        <mxCell id="2DAiJqgA59Ea-LpY0h7K-10" value="procura um sapato ou sapatinha que não precise de meia" style="whiteSpace=wrap;html=1;rounded=1;" vertex="1" parent="1">
          <mxGeometry x="390" y="230" width="120" height="60" as="geometry" />
        </mxCell>
        <mxCell id="2DAiJqgA59Ea-LpY0h7K-13" value="Não tenho&amp;nbsp;" style="text;html=1;align=center;verticalAlign=middle;resizable=0;points=[];autosize=1;strokeColor=none;fillColor=none;" vertex="1" parent="1">
          <mxGeometry x="300" y="238" width="80" height="30" as="geometry" />
        </mxCell>
        <mxCell id="2DAiJqgA59Ea-LpY0h7K-18" value="" style="edgeStyle=orthogonalEdgeStyle;rounded=0;orthogonalLoop=1;jettySize=auto;html=1;" edge="1" parent="1" source="2DAiJqgA59Ea-LpY0h7K-15" target="2DAiJqgA59Ea-LpY0h7K-17">
          <mxGeometry relative="1" as="geometry" />
        </mxCell>
        <mxCell id="2DAiJqgA59Ea-LpY0h7K-15" value="escolha um tênis de sua preferencia" style="whiteSpace=wrap;html=1;rounded=1;" vertex="1" parent="1">
          <mxGeometry x="170" y="350" width="120" height="60" as="geometry" />
        </mxCell>
        <mxCell id="2DAiJqgA59Ea-LpY0h7K-20" value="" style="edgeStyle=orthogonalEdgeStyle;rounded=0;orthogonalLoop=1;jettySize=auto;html=1;" edge="1" parent="1" source="2DAiJqgA59Ea-LpY0h7K-17" target="2DAiJqgA59Ea-LpY0h7K-19">
          <mxGeometry relative="1" as="geometry" />
        </mxCell>
        <mxCell id="2DAiJqgA59Ea-LpY0h7K-17" value="coloque a meia" style="whiteSpace=wrap;html=1;rounded=1;" vertex="1" parent="1">
          <mxGeometry x="170" y="470" width="120" height="60" as="geometry" />
        </mxCell>
        <mxCell id="2DAiJqgA59Ea-LpY0h7K-25" value="" style="edgeStyle=orthogonalEdgeStyle;rounded=0;orthogonalLoop=1;jettySize=auto;html=1;" edge="1" parent="1" source="2DAiJqgA59Ea-LpY0h7K-19" target="2DAiJqgA59Ea-LpY0h7K-24">
          <mxGeometry relative="1" as="geometry" />
        </mxCell>
        <mxCell id="2DAiJqgA59Ea-LpY0h7K-19" value="calce o tênis" style="whiteSpace=wrap;html=1;rounded=1;" vertex="1" parent="1">
          <mxGeometry x="170" y="610" width="120" height="60" as="geometry" />
        </mxCell>
        <mxCell id="2DAiJqgA59Ea-LpY0h7K-24" value="" style="whiteSpace=wrap;html=1;rounded=1;" vertex="1" parent="1">
          <mxGeometry x="170" y="720" width="120" height="60" as="geometry" />
        </mxCell>
      </root>
    </mxGraphModel>
  </diagram>
</mxfile>
